<svg xmlns="http://www.w3.org/2000/svg" version="1.1" xmlns:xlink="http://www.w3.org/1999/xlink" xmlns:svgjs="http://svgjs.dev/svgjs" width="2000" height="191" viewBox="0 0 2000 191"><g transform="matrix(1,0,0,1,-1.2121212121212466,-0.7434089109713824)"><svg viewBox="0 0 396 38" data-background-color="#ffffff" preserveAspectRatio="xMidYMid meet" height="191" width="2000" xmlns="http://www.w3.org/2000/svg" xmlns:xlink="http://www.w3.org/1999/xlink"><g id="tight-bounds" transform="matrix(1,0,0,1,0.2400000000000091,0.14790334354404422)"><svg viewBox="0 0 395.52 37.704193312911926" height="37.704193312911926" width="395.52"><g><svg viewBox="0 0 462.0007165500164 44.04167760797342" height="37.704193312911926" width="395.52"><g><rect width="3.951964117112771" height="44.04167760797342" x="52.18329662894353" y="0" fill="#000000" opacity="1" stroke-width="0" stroke="transparent" fill-opacity="1" class="rect-yte-0" data-fill-palette-color="primary" rx="1%" id="yte-0" data-palette-color="#111111"></rect></g><g transform="matrix(1,0,0,1,66.48071655001644,0.10955641196013133)"><svg viewBox="0 0 395.52 43.82256478405316" height="43.82256478405316" width="395.52"><g id="textblocktransform"><svg viewBox="0 0 395.52 43.82256478405316" height="43.82256478405316" width="395.52" id="textblock"><g><svg viewBox="0 0 395.52 43.82256478405316" height="43.82256478405316" width="395.52"><g transform="matrix(1,0,0,1,0,0)"><svg width="395.52" viewBox="2.88 -32.03 293.92 32.57" height="43.82256478405316" data-palette-color="#111111"><path d="M24.39-29.52Q25.39-29.52 25.81-29.15 26.22-28.78 26.22-27.93L26.22-27.93 26.22-19.87Q26.22-19.02 25.81-18.65 25.39-18.29 24.39-18.29L24.39-18.29Q23.39-18.29 22.97-18.65 22.56-19.02 22.56-19.87L22.56-19.87Q22.56-21.53 21.81-22.9 21.07-24.27 19.53-25.09 17.99-25.9 15.72-25.9L15.72-25.9Q13.09-25.9 11.05-24.51 9.01-23.12 7.87-20.53 6.74-17.94 6.74-14.48L6.74-14.48Q6.74-11.01 7.81-8.44 8.89-5.86 10.86-4.47 12.84-3.08 15.48-3.08L15.48-3.08Q17.9-3.08 20.09-3.78 22.29-4.49 24.05-5.83L24.05-5.83Q24.46-6.18 24.95-6.18L24.95-6.18Q25.68-6.18 26.25-5.22L26.25-5.22Q26.68-4.49 26.68-3.93L26.68-3.93Q26.68-3.2 25.93-2.66L25.93-2.66Q23.66-1.07 20.98-0.27 18.31 0.54 15.48 0.54L15.48 0.54Q11.67 0.54 8.83-1.33 5.98-3.2 4.43-6.59 2.88-9.99 2.88-14.48L2.88-14.48Q2.88-18.95 4.47-22.35 6.05-25.76 8.92-27.64 11.79-29.52 15.48-29.52L15.48-29.52Q17.77-29.52 19.56-28.74 21.34-27.95 22.56-26.51L22.56-26.51 22.56-27.93Q22.56-28.78 22.97-29.15 23.39-29.52 24.39-29.52L24.39-29.52ZM45.07-23.1Q49.66-23.1 51.95-21.04 54.25-18.99 54.25-14.97L54.25-14.97 54.25-5.25Q54.25-3.32 55.86-3.32L55.86-3.32 56.71-3.32Q57.54-3.32 57.9-2.94 58.25-2.56 58.25-1.66L58.25-1.66Q58.25-0.76 57.9-0.38 57.54 0 56.71 0L56.71 0 55.15 0Q53.56 0 52.43-0.79 51.29-1.59 50.95-3.13L50.95-3.13Q48.95-1.37 46.62-0.42 44.28 0.54 41.67 0.54L41.67 0.54Q39.21 0.54 37.31-0.31 35.42-1.15 34.35-2.76 33.27-4.37 33.27-6.59L33.27-6.59Q33.27-10.45 36.03-12.29 38.79-14.14 43.16-14.14L43.16-14.14Q47.04-14.14 50.58-12.89L50.58-12.89 50.58-14.97Q50.58-17.33 49.25-18.44 47.92-19.56 44.97-19.56L44.97-19.56Q43.14-19.56 41.16-19.04 39.18-18.53 37.4-17.63L37.4-17.63Q36.98-17.41 36.64-17.41L36.64-17.41Q35.84-17.41 35.3-18.58L35.3-18.58Q35.03-19.17 35.03-19.56L35.03-19.56Q35.03-20.41 35.94-20.87L35.94-20.87Q37.99-21.95 40.34-22.52 42.7-23.1 45.07-23.1L45.07-23.1ZM43.19-10.69Q40.38-10.69 38.75-9.73 37.13-8.76 37.13-6.67L37.13-6.67Q37.13-4.88 38.36-3.89 39.6-2.91 41.82-2.91L41.82-2.91Q46.68-2.91 50.58-6.93L50.58-6.93 50.58-9.59Q48.92-10.13 47.02-10.41 45.11-10.69 43.19-10.69L43.19-10.69ZM82.42-23.1Q84.32-23.1 85.98-22.12L85.98-22.12Q86.96-21.53 86.96-20.61L86.96-20.61Q86.96-20.17 86.74-19.58L86.74-19.58Q86.23-18.19 85.32-18.19L85.32-18.19Q84.96-18.19 84.64-18.38L84.64-18.38Q83.44-19.04 82.08-19.04L82.08-19.04Q79.88-19.04 77.66-17.52 75.43-15.99 74.01-13.45 72.58-10.91 72.58-8.06L72.58-8.06 72.58-3.32 80.81-3.32Q81.64-3.32 81.99-2.94 82.34-2.56 82.34-1.66L82.34-1.66Q82.34-0.76 81.99-0.38 81.64 0 80.81 0L80.81 0 65.08 0Q64.25 0 63.9-0.38 63.54-0.76 63.54-1.66L63.54-1.66Q63.54-2.56 63.9-2.94 64.25-3.32 65.08-3.32L65.08-3.32 68.92-3.32 68.92-19.24 65.82-19.24Q64.99-19.24 64.63-19.62 64.28-20 64.28-20.9L64.28-20.9Q64.28-21.8 64.63-22.18 64.99-22.56 65.82-22.56L65.82-22.56 70.8-22.56Q71.63-22.56 71.98-22.18 72.33-21.8 72.33-20.9L72.33-20.9 72.33-15.97Q73.51-18.12 75.17-19.73 76.83-21.34 78.71-22.22 80.59-23.1 82.42-23.1L82.42-23.1ZM113.44-32.03Q114.27-32.03 114.63-31.65 114.98-31.27 114.98-30.37L114.98-30.37 114.98-3.32 116.98-3.32Q117.81-3.32 118.17-2.94 118.52-2.56 118.52-1.66L118.52-1.66Q118.52-0.76 118.17-0.38 117.81 0 116.98 0L116.98 0 113.1 0Q112.27 0 111.92-0.38 111.56-0.76 111.56-1.66L111.56-1.66 111.56-3.61Q110.03-1.61 108-0.54 105.97 0.54 103.58 0.54L103.58 0.54Q100.55 0.54 98.16-0.89 95.77-2.32 94.4-4.99 93.03-7.67 93.03-11.28L93.03-11.28Q93.03-14.89 94.4-17.57 95.77-20.24 98.16-21.67 100.55-23.1 103.58-23.1L103.58-23.1Q108.17-23.1 111.32-19.07L111.32-19.07 111.32-28.71 107.37-28.71Q106.54-28.71 106.18-29.09 105.83-29.47 105.83-30.37L105.83-30.37Q105.83-31.27 106.18-31.65 106.54-32.03 107.37-32.03L107.37-32.03 113.44-32.03ZM103.83-19.48Q101.65-19.48 100.09-18.44 98.53-17.41 97.71-15.55 96.89-13.7 96.89-11.28L96.89-11.28Q96.89-8.86 97.71-7.01 98.53-5.15 100.09-4.11 101.65-3.08 103.83-3.08L103.83-3.08Q106-3.08 107.7-4.05 109.39-5.03 110.36-6.88 111.32-8.74 111.32-11.28L111.32-11.28Q111.32-13.82 110.36-15.67 109.39-17.53 107.7-18.51 106-19.48 103.83-19.48L103.83-19.48ZM146.89-28.98Q147.72-28.98 148.07-28.6 148.43-28.22 148.43-27.32L148.43-27.32Q148.43-26.42 148.07-26.04 147.72-25.66 146.89-25.66L146.89-25.66 145.67-25.66 146.3-3.32 147.62-3.32Q148.45-3.32 148.81-2.94 149.16-2.56 149.16-1.66L149.16-1.66Q149.16-0.76 148.81-0.38 148.45 0 147.62 0L147.62 0 139.96 0Q139.13 0 138.77-0.38 138.42-0.76 138.42-1.66L138.42-1.66Q138.42-2.56 138.77-2.94 139.13-3.32 139.96-3.32L139.96-3.32 142.67-3.32 142.13-23.32 137.15-9.4Q136.83-8.54 136.31-8.18 135.78-7.81 134.9-7.81L134.9-7.81Q134.02-7.81 133.5-8.18 132.97-8.54 132.66-9.4L132.66-9.4 127.65-23.32 127.14-3.32 129.85-3.32Q130.68-3.32 131.03-2.94 131.39-2.56 131.39-1.66L131.39-1.66Q131.39-0.76 131.03-0.38 130.68 0 129.85 0L129.85 0 122.18 0Q121.35 0 121-0.38 120.64-0.76 120.64-1.66L120.64-1.66Q120.64-2.56 121-2.94 121.35-3.32 122.18-3.32L122.18-3.32 123.5-3.32 124.11-25.66 122.91-25.66Q122.08-25.66 121.73-26.04 121.38-26.42 121.38-27.32L121.38-27.32Q121.38-28.22 121.73-28.6 122.08-28.98 122.91-28.98L122.91-28.98 128.07-28.98Q128.65-28.98 128.99-28.78 129.34-28.59 129.48-28.17L129.48-28.17 134.9-13.31 140.3-28.17Q140.57-28.98 141.74-28.98L141.74-28.98 146.89-28.98ZM164.98-23.1Q169.57-23.1 171.86-21.04 174.16-18.99 174.16-14.97L174.16-14.97 174.16-5.25Q174.16-3.32 175.77-3.32L175.77-3.32 176.62-3.32Q177.45-3.32 177.81-2.94 178.16-2.56 178.16-1.66L178.16-1.66Q178.16-0.76 177.81-0.38 177.45 0 176.62 0L176.62 0 175.06 0Q173.47 0 172.34-0.79 171.2-1.59 170.86-3.13L170.86-3.13Q168.86-1.37 166.53-0.42 164.2 0.54 161.58 0.54L161.58 0.54Q159.12 0.54 157.23-0.31 155.33-1.15 154.26-2.76 153.19-4.37 153.19-6.59L153.19-6.59Q153.19-10.45 155.94-12.29 158.7-14.14 163.07-14.14L163.07-14.14Q166.96-14.14 170.5-12.89L170.5-12.89 170.5-14.97Q170.5-17.33 169.16-18.44 167.83-19.56 164.88-19.56L164.88-19.56Q163.05-19.56 161.07-19.04 159.09-18.53 157.31-17.63L157.31-17.63Q156.9-17.41 156.55-17.41L156.55-17.41Q155.75-17.41 155.21-18.58L155.21-18.58Q154.94-19.17 154.94-19.56L154.94-19.56Q154.94-20.41 155.85-20.87L155.85-20.87Q157.9-21.95 160.25-22.52 162.61-23.1 164.98-23.1L164.98-23.1ZM163.1-10.69Q160.29-10.69 158.67-9.73 157.04-8.76 157.04-6.67L157.04-6.67Q157.04-4.88 158.28-3.89 159.51-2.91 161.73-2.91L161.73-2.91Q166.59-2.91 170.5-6.93L170.5-6.93 170.5-9.59Q168.84-10.13 166.93-10.41 165.03-10.69 163.1-10.69L163.1-10.69ZM202.55-23.1Q203.55-23.1 203.96-22.73 204.38-22.36 204.38-21.51L204.38-21.51 204.38-16.87Q204.38-16.02 203.96-15.65 203.55-15.28 202.55-15.28L202.55-15.28Q201.72-15.28 201.38-15.92L201.38-15.92Q200.33-17.92 198.32-18.74 196.32-19.56 193.25-19.56L193.25-19.56Q190.88-19.56 189.55-18.71 188.22-17.87 188.22-16.36L188.22-16.36Q188.22-15.58 188.72-15.09 189.22-14.6 190.19-14.28L190.19-14.28Q191-14.01 192.06-13.87 193.12-13.72 194.81-13.55L194.81-13.55Q197.18-13.28 198.63-13.05 200.08-12.82 201.38-12.35L201.38-12.35Q203.33-11.65 204.42-10.3 205.5-8.96 205.5-6.76L205.5-6.76Q205.5-4.57 204.39-2.92 203.28-1.27 201.14-0.37 199.01 0.54 196.03 0.54L196.03 0.54Q193.39 0.54 191.39-0.2 189.39-0.93 187.9-2.42L187.9-2.42 187.9-1.05Q187.9-0.2 187.49 0.17 187.07 0.54 186.07 0.54L186.07 0.54Q185.07 0.54 184.65 0.17 184.24-0.2 184.24-1.05L184.24-1.05 184.24-6.91Q184.24-7.76 184.65-8.13 185.07-8.5 186.07-8.5L186.07-8.5Q186.58-8.5 186.87-8.26 187.17-8.03 187.39-7.5L187.39-7.5Q188.27-5.15 190.32-4.08 192.37-3 195.79-3L195.79-3Q198.62-3 200.13-4.03 201.65-5.05 201.65-6.76L201.65-6.76Q201.65-7.59 201.11-8.13 200.57-8.67 199.57-9.01L199.57-9.01Q198.72-9.28 197.6-9.46 196.49-9.64 194.78-9.81L194.78-9.81Q192.49-10.06 190.95-10.33 189.41-10.6 188.12-11.11L188.12-11.11Q186.34-11.82 185.35-13.07 184.36-14.33 184.36-16.36L184.36-16.36Q184.36-18.48 185.47-20.01 186.58-21.53 188.55-22.31 190.51-23.1 193-23.1L193-23.1Q195.37-23.1 197.34-22.39 199.3-21.68 200.72-20.41L200.72-20.41 200.72-21.51Q200.72-22.36 201.13-22.73 201.55-23.1 202.55-23.1L202.55-23.1ZM221.03-29.52Q222.03-29.52 222.44-29.15 222.86-28.78 222.86-27.93L222.86-27.93 222.86-20.61 232.89-20.61Q233.72-20.61 234.08-20.23 234.43-19.85 234.43-18.95L234.43-18.95Q234.43-18.04 234.08-17.66 233.72-17.29 232.89-17.29L232.89-17.29 222.86-17.29 222.86-8.4Q222.86-5.62 223.82-4.32 224.79-3.03 227.18-3.03L227.18-3.03Q228.82-3.03 230.62-3.69 232.43-4.35 234.11-5.44L234.11-5.44Q234.46-5.69 234.87-5.69L234.87-5.69Q235.7-5.69 236.29-4.57L236.29-4.57Q236.6-3.93 236.6-3.47L236.6-3.47Q236.6-2.69 235.8-2.2L235.8-2.2Q233.89-1 231.55-0.23 229.21 0.54 227.18 0.54L227.18 0.54Q223.03 0.54 221.11-1.62 219.2-3.78 219.2-8.08L219.2-8.08 219.2-17.29 214.24-17.29Q213.41-17.29 213.06-17.66 212.7-18.04 212.7-18.95L212.7-18.95Q212.7-19.85 213.06-20.23 213.41-20.61 214.24-20.61L214.24-20.61 219.2-20.61 219.2-27.93Q219.2-28.78 219.61-29.15 220.03-29.52 221.03-29.52L221.03-29.52ZM255.03-23.1Q258.57-23.1 261.08-21.67 263.58-20.24 264.92-17.71 266.26-15.19 266.46-11.89L266.46-11.89Q266.46-11.06 266.11-10.72 265.75-10.38 264.92-10.38L264.92-10.38 247.25-10.38Q247.42-6.74 249.41-4.87 251.4-3 255.03-3L255.03-3Q257.28-3 259.48-3.58 261.67-4.15 263.33-5.1L263.33-5.1Q263.75-5.32 264.09-5.32L264.09-5.32Q264.95-5.32 265.48-4.03L265.48-4.03Q265.7-3.52 265.7-3.1L265.7-3.1Q265.7-2.12 264.63-1.59L264.63-1.59Q262.75-0.63 260.19-0.05 257.62 0.54 255.03 0.54L255.03 0.54Q251.35 0.54 248.73-0.88 246.12-2.29 244.76-4.96 243.39-7.62 243.39-11.28L243.39-11.28Q243.39-14.77 244.88-17.46 246.37-20.14 249-21.62 251.64-23.1 255.03-23.1L255.03-23.1ZM255.03-19.56Q252.03-19.56 250.07-18.03 248.1-16.5 247.49-13.79L247.49-13.79 262.41-13.79Q261.89-16.6 260.05-18.08 258.21-19.56 255.03-19.56L255.03-19.56ZM292.26-23.1Q294.17-23.1 295.83-22.12L295.83-22.12Q296.8-21.53 296.8-20.61L296.8-20.61Q296.8-20.17 296.58-19.58L296.58-19.58Q296.07-18.19 295.17-18.19L295.17-18.19Q294.8-18.19 294.48-18.38L294.48-18.38Q293.29-19.04 291.92-19.04L291.92-19.04Q289.72-19.04 287.5-17.52 285.28-15.99 283.85-13.45 282.42-10.91 282.42-8.06L282.42-8.06 282.42-3.32 290.65-3.32Q291.48-3.32 291.84-2.94 292.19-2.56 292.19-1.66L292.19-1.66Q292.19-0.76 291.84-0.38 291.48 0 290.65 0L290.65 0 274.93 0Q274.1 0 273.74-0.38 273.39-0.76 273.39-1.66L273.39-1.66Q273.39-2.56 273.74-2.94 274.1-3.32 274.93-3.32L274.93-3.32 278.76-3.32 278.76-19.24 275.66-19.24Q274.83-19.24 274.48-19.62 274.12-20 274.12-20.9L274.12-20.9Q274.12-21.8 274.48-22.18 274.83-22.56 275.66-22.56L275.66-22.56 280.64-22.56Q281.47-22.56 281.83-22.18 282.18-21.8 282.18-20.9L282.18-20.9 282.18-15.97Q283.35-18.12 285.01-19.73 286.67-21.34 288.55-22.22 290.43-23.1 292.26-23.1L292.26-23.1Z" opacity="1" transform="matrix(1,0,0,1,0,0)" fill="#000000" class="wordmark-text-0" data-fill-palette-color="primary" id="text-0"></path></svg></g></svg></g></svg></g></svg></g><g transform="matrix(1,0,0,1,0,0.10955641196013133)"><svg viewBox="0 0 41.837840824983395 43.82256478405316" height="43.82256478405316" width="41.837840824983395"><g><svg version="1.0" xmlns="http://www.w3.org/2000/svg" xmlns:xlink="http://www.w3.org/1999/xlink" x="0" y="0" viewBox="0 0 95.471 100" enable-background="new 0 0 95.471 100" xml:space="preserve" id="icon-0" width="41.837840824983395" height="43.82256478405316" class="icon-icon-0" data-fill-palette-color="accent"><path d="M47.735 0C47.652 2.825 45.997 13.412 27.936 30.934 10.554 47.797 2.439 49.824 0 50 2.439 50.178 10.554 52.204 27.936 69.066 45.997 86.589 47.652 97.177 47.735 100 47.818 97.177 49.474 86.589 67.533 69.066 84.917 52.204 93.031 50.178 95.471 50 93.032 49.824 84.917 47.797 67.533 30.934 49.475 13.412 47.819 2.825 47.735 0" fill="#000000" data-fill-palette-color="accent"></path></svg></g></svg></g></svg></g><defs></defs></svg><rect width="395.52" height="37.704193312911926" fill="none" stroke="none" visibility="hidden"></rect></g></svg></g></svg>